<svg xmlns="http://www.w3.org/2000/svg" version="1.1" xmlns:xlink="http://www.w3.org/1999/xlink" xmlns:svgjs="http://svgjs.dev/svgjs" width="1000" height="358" viewBox="0 0 1000 358"><g transform="matrix(1,0,0,1,-0.6060606060606233,-0.4351634008997678)"><svg viewBox="0 0 396 142" data-background-color="#ffffff" preserveAspectRatio="xMidYMid meet" height="358" width="1000" xmlns="http://www.w3.org/2000/svg" xmlns:xlink="http://www.w3.org/1999/xlink"><g id="tight-bounds" transform="matrix(1,0,0,1,0.2400000000000091,0.17260671208873646)"><svg viewBox="0 0 395.52 141.65478657582253" height="141.65478657582253" width="395.52"><g><svg viewBox="0 0 682.4865847752496 244.43135999999998" height="141.65478657582253" width="395.52"><g transform="matrix(1,0,0,1,286.96658477524966,32.127689744214365)"><svg viewBox="0 0 395.52 180.17598051157125" height="180.17598051157125" width="395.52"><g><svg viewBox="0 0 395.52 180.17598051157125" height="180.17598051157125" width="395.52"><g><svg viewBox="0 0 395.52 180.17598051157125" height="180.17598051157125" width="395.52"><g transform="matrix(1,0,0,1,0,0)"><svg width="395.52" viewBox="1.81 -36.04 80.17 36.53" height="180.17598051157125" data-palette-color="#000000"><path d="M17.87-9.33L17.87-9.33Q17.87-11.5 16.76-12.61 15.65-13.72 12.72-14.92L12.72-14.92Q7.37-16.94 5.03-19.67 2.69-22.39 2.69-26.1L2.69-26.1Q2.69-30.59 5.87-33.31 9.06-36.04 13.96-36.04L13.96-36.04Q17.24-36.04 19.8-34.66 22.36-33.28 23.74-30.76 25.12-28.25 25.12-25.05L25.12-25.05 17.97-25.05Q17.97-27.54 16.91-28.85 15.84-30.15 13.84-30.15L13.84-30.15Q11.96-30.15 10.91-29.04 9.86-27.93 9.86-26.05L9.86-26.05Q9.86-24.58 11.04-23.4 12.21-22.22 15.19-20.95L15.19-20.95Q20.39-19.07 22.74-16.33 25.1-13.6 25.1-9.38L25.1-9.38Q25.1-4.74 22.14-2.12 19.19 0.49 14.11 0.49L14.11 0.49Q10.67 0.49 7.84-0.93 5-2.34 3.41-4.98 1.81-7.62 1.81-11.21L1.81-11.21 9.01-11.21Q9.01-8.13 10.21-6.74 11.4-5.35 14.11-5.35L14.11-5.35Q17.87-5.35 17.87-9.33ZM48.73 0L46.82-7.28 37.03-7.28 35.13 0 27.54 0 38.64-35.55 45.21-35.55 56.39 0 48.73 0ZM41.92-25.93L38.6-13.26 45.24-13.26 41.92-25.93ZM74.73-9.33L74.73-9.33Q74.73-11.5 73.62-12.61 72.5-13.72 69.58-14.92L69.58-14.92Q64.23-16.94 61.88-19.67 59.54-22.39 59.54-26.1L59.54-26.1Q59.54-30.59 62.73-33.31 65.91-36.04 70.82-36.04L70.82-36.04Q74.09-36.04 76.66-34.66 79.22-33.28 80.6-30.76 81.98-28.25 81.98-25.05L81.98-25.05 74.82-25.05Q74.82-27.54 73.76-28.85 72.7-30.15 70.7-30.15L70.7-30.15Q68.82-30.15 67.77-29.04 66.72-27.93 66.72-26.05L66.72-26.05Q66.72-24.58 67.89-23.4 69.06-22.22 72.04-20.95L72.04-20.95Q77.24-19.07 79.6-16.33 81.95-13.6 81.95-9.38L81.95-9.38Q81.95-4.74 79-2.12 76.04 0.49 70.97 0.49L70.97 0.49Q67.52 0.49 64.69-0.93 61.86-2.34 60.26-4.98 58.66-7.62 58.66-11.21L58.66-11.21 65.86-11.21Q65.86-8.13 67.06-6.74 68.26-5.35 70.97-5.35L70.97-5.35Q74.73-5.35 74.73-9.33Z" opacity="1" transform="matrix(1,0,0,1,0,0)" fill="#000000" class="undefined-text-0" data-fill-palette-color="primary" id="text-0"></path></svg></g></svg></g></svg></g></svg></g><g><svg viewBox="0 0 244.43135999999998 244.43135999999998" height="244.43135999999998" width="244.43135999999998"><g><svg xmlns="http://www.w3.org/2000/svg" xmlns:xlink="http://www.w3.org/1999/xlink" version="1.1" x="0" y="0" viewBox="0 0 48 48" enable-background="new 0 0 48 48" xml:space="preserve" height="244.43135999999998" width="244.43135999999998" class="icon-icon-0" data-fill-palette-color="accent" id="icon-0"><g fill="#61777f" data-fill-palette-color="accent"><path d="M36.5 17.7c-1.3 0-2.7 0.3-3.9 0.9-0.1 0-0.1 0-0.2 0.1 0.3-1.2 1.2-3.3 4.2-4.3 0.5-0.2 0.8-0.7 0.6-1.3-0.2-0.5-0.7-0.8-1.3-0.6-3.9 1.3-5.3 4.3-5.7 6.3-0.1 0-0.3-0.1-0.4-0.1-1.3-0.6-2.6-0.9-3.9-0.9-1.4 0-2.8 0.4-4 1v-4.8c0-2.2-1.8-4-4-4h-0.4V5.8c0-0.6-0.4-1-1-1H12V2h2.8c0.6 0 1-0.4 1-1s-0.4-1-1-1H7.2c-0.6 0-1 0.4-1 1s0.4 1 1 1H10v2.8H5.4c-0.6 0-1 0.4-1 1v4.1H4c-2.2 0-4 1.8-4 4V44c0 2.2 1.8 4 4 4h13.9c1.2 0 2.4-0.6 3.1-1.5 1.5 0.9 3.2 1.5 4.9 1.5 1 0 2.1-0.2 3.1-0.6 1.4-0.5 3-0.5 4.3 0 1 0.4 2 0.6 3.1 0.6C42.8 48 48 41.2 48 32.8S42.8 17.7 36.5 17.7zM6.4 6.8h9.2v3.1H6.4V6.8zM2 13.8c0-1.1 0.9-2 2-2h13.9c1.1 0 2 0.9 2 2v6.1c-0.1 0.1-1.5 1.5-1.9 2 0 0.1-0.1 0.1-0.1 0.2H2V13.8zM2 24.1h14.6c-0.1 0.1-0.1 0.3-0.2 0.4-2.3 4.2-1.9 9-1.9 9.3H2V24.1zM17.9 46H4c-1.1 0-2-0.9-2-2v-8.2h12.7c0 0.1 0 0.1 0 0.2 0.1 0.4 0.3 4.8 4.7 9.3C19.1 45.7 18.5 46 17.9 46zM36.5 46c-0.8 0-1.6-0.1-2.4-0.4-0.9-0.3-1.9-0.5-2.9-0.5-1 0-1.9 0.2-2.9 0.5-0.8 0.3-1.6 0.3-2.4 0.4-4.9-0.2-7.4-4.6-7.2-4.6-6.4-13.3 2.6-20.1 2.7-20.2 1.3-1 2.8-1.5 4.5-1.5 1 0 2.1 0.2 3.1 0.7 1.4 0.7 3 0.7 4.4 0 1-0.5 2-0.7 3.1-0.7 5.2 0 9.5 5.9 9.5 13.2S41.7 46 36.5 46z" fill="#61777f" data-fill-palette-color="accent"></path><path d="M26 21c-4.5 0-8.1 5.3-8.1 11.8 0 0.6 0.4 1 1 1 0.6 0 1-0.4 1-1 0-5.2 2.9-9.8 6.1-9.8 0.6 0 1-0.4 1-1S26.5 21 26 21z" fill="#61777f" data-fill-palette-color="accent"></path></g></svg></g></svg></g></svg></g><defs></defs></svg><rect width="395.52" height="141.65478657582253" fill="none" stroke="none" visibility="hidden"></rect></g></svg></g></svg>